<?xml version="1.0" standalone="no"?>
<!DOCTYPE svg PUBLIC "-//W3C//DTD SVG 20010904//EN"
 "http://www.w3.org/TR/2001/REC-SVG-20010904/DTD/svg10.dtd">
<svg version="1.0" xmlns="http://www.w3.org/2000/svg"
 width="626.000000pt" height="626.000000pt" viewBox="0 0 626.000000 626.000000"
 preserveAspectRatio="xMidYMid meet">

<g transform="translate(0.000000,626.000000) scale(0.100000,-0.100000)"
fill="#000000" stroke="none">
<path d="M3035 5101 c-73 -34 -109 -93 -121 -198 -4 -32 -10 -62 -14 -68 -26
-37 -16 -107 19 -131 10 -7 22 -33 25 -56 19 -111 20 -102 -18 -132 l-37 -27
26 -31 c14 -17 24 -32 22 -35 -3 -2 -38 18 -78 45 -93 63 -150 82 -243 82 -75
0 -92 -5 -77 -24 5 -6 12 -21 15 -33 5 -15 -5 -10 -36 22 -58 58 -109 72 -201
55 -78 -14 -101 -32 -122 -100 -8 -28 -14 -36 -14 -22 -1 36 25 90 60 121 17
16 46 63 64 104 36 84 85 159 116 181 12 8 18 19 14 26 -6 9 -2 9 12 2 14 -8
26 -6 51 10 31 19 31 20 16 46 l-16 27 21 -25 c11 -14 19 -31 18 -39 -4 -24
39 -32 58 -11 16 18 16 21 1 44 -25 40 -19 44 9 6 l25 -34 -23 -24 c-23 -23
-25 -23 -62 -8 -63 27 -78 -2 -17 -33 l37 -19 18 24 c10 14 28 24 42 24 32 0
52 34 33 58 -12 15 -11 16 5 3 12 -10 16 -22 12 -38 -7 -28 15 -31 32 -4 9 15
8 23 -4 42 l-17 24 22 -19 c27 -23 27 -31 5 -59 -14 -17 -27 -21 -60 -19 -33
2 -44 -1 -57 -19 -12 -18 -13 -25 -3 -31 22 -14 56 -8 76 13 11 12 26 19 35
16 10 -4 25 6 42 28 l26 34 -48 70 -49 70 -100 -2 c-83 -2 -106 -6 -130 -23
-17 -11 -74 -44 -128 -73 -263 -138 -396 -267 -422 -404 -4 -20 -13 -41 -21
-48 -8 -6 -14 -27 -14 -46 0 -61 64 -103 196 -126 l79 -15 -65 -1 -65 -2 45
-39 c59 -53 191 -118 260 -129 32 -5 75 -5 100 -1 25 5 48 9 52 10 24 1 118
108 118 133 0 2 -26 0 -57 -5 -92 -15 -238 9 -288 46 -15 12 -6 11 41 -4 123
-38 256 -38 294 0 17 17 18 17 29 -7 6 -14 32 -95 56 -179 42 -146 89 -258
123 -296 9 -11 11 -18 4 -18 -16 0 -69 74 -101 141 -23 48 -39 97 -87 267 -2
7 -20 -6 -43 -31 -38 -41 -39 -44 -31 -89 15 -78 67 -198 134 -311 42 -72 68
-128 77 -170 19 -87 17 -245 -6 -339 l-18 -78 -441 -2 -441 -3 -3 -297 -2
-298 1310 0 1310 0 -2 298 -3 297 -441 3 -441 2 -16 68 c-9 37 -19 97 -23 134
-6 64 -5 70 25 116 17 27 31 53 31 59 0 5 11 20 25 33 27 25 33 67 14 102 -10
18 -9 20 7 13 181 -72 331 -117 354 -105 54 29 74 192 46 390 -9 63 -16 117
-16 120 0 4 37 25 83 48 45 23 102 60 127 82 l45 39 -65 2 -65 1 73 14 c102
18 137 31 172 64 33 31 41 81 16 109 -7 9 -19 39 -25 66 -32 131 -161 251
-416 386 -55 29 -113 62 -130 73 -24 17 -48 21 -130 23 l-100 3 -48 -70 -48
-70 21 -30 c13 -18 30 -30 43 -30 13 0 30 -9 40 -20 17 -20 52 -26 74 -12 10
6 9 13 -3 30 -12 17 -25 22 -63 22 -41 0 -50 4 -61 25 -12 23 -12 28 4 43 17
16 18 16 8 -3 -7 -15 -7 -25 3 -38 18 -25 37 -21 30 6 -4 16 0 28 12 38 16 13
17 12 5 -3 -19 -23 1 -58 33 -58 13 0 32 -11 43 -25 l20 -25 36 21 c58 34 43
59 -19 33 -37 -15 -39 -15 -62 8 l-23 24 25 34 c28 37 34 34 9 -5 -13 -21 -14
-28 -4 -41 17 -19 66 -15 63 6 -1 8 7 26 18 40 l21 25 -16 -27 c-15 -26 -15
-27 16 -46 25 -16 37 -18 51 -10 14 7 18 7 12 -2 -4 -7 2 -18 14 -26 31 -22
81 -100 118 -183 17 -41 46 -88 64 -105 34 -32 59 -83 58 -118 0 -14 -6 -6
-14 22 -21 68 -44 86 -122 100 -92 17 -143 3 -201 -55 -31 -32 -41 -37 -36
-22 3 12 11 28 16 34 15 19 -9 24 -93 21 -70 -3 -75 -2 -91 23 -22 35 -95 69
-163 76 -44 5 -55 9 -55 24 0 10 9 24 20 32 36 25 47 95 20 132 -4 6 -10 36
-14 68 -16 143 -89 217 -216 217 -32 0 -71 -8 -95 -19z m135 -436 c14 -7 36
-24 48 -38 23 -25 23 -26 5 -54 l-18 -28 36 31 c44 38 91 48 154 34 111 -25
125 -43 127 -167 0 -36 3 -43 20 -43 10 0 16 -4 13 -10 -3 -5 -15 -10 -27 -10
-15 0 -18 -4 -13 -17 26 -66 27 -71 6 -92 -12 -12 -21 -28 -21 -36 0 -7 -7
-18 -16 -23 -13 -7 -14 -13 -6 -29 23 -42 -29 -56 -93 -26 -19 9 -38 14 -41
10 -3 -3 2 -23 12 -44 15 -30 26 -39 49 -41 73 -8 108 -25 188 -94 93 -80 144
-114 196 -132 24 -9 41 -23 52 -46 16 -32 16 -31 22 98 3 72 4 153 0 180 -5
42 -2 53 16 71 11 11 21 27 21 33 0 7 -7 3 -15 -9 -22 -32 -80 -46 -120 -29
-69 29 -87 106 -36 157 31 31 59 36 94 17 20 -10 21 -10 8 5 -8 10 -28 17 -47
17 -19 0 -34 4 -34 10 0 27 27 59 65 78 40 19 43 19 61 4 18 -17 18 -16 0 5
-17 21 -20 21 -47 8 -39 -21 -47 -19 -41 10 10 57 99 85 151 49 36 -26 54 -79
41 -119 -6 -18 -17 -36 -24 -38 -18 -7 -14 -119 9 -242 24 -125 31 -368 13
-420 -12 -36 -17 -40 -44 -38 -41 3 -228 66 -316 107 -68 30 -76 37 -105 92
-18 32 -33 51 -33 41 0 -9 25 -65 55 -123 45 -87 53 -109 44 -125 -14 -27 -56
-42 -97 -34 -42 8 -35 -7 10 -25 18 -8 35 -15 37 -16 2 -2 -25 -45 -60 -96
-71 -105 -90 -159 -77 -226 4 -25 6 -47 4 -49 -1 -2 -104 -2 -227 -1 l-224 3
25 25 25 25 -66 112 c-36 62 -81 141 -99 176 l-33 64 27 149 c33 186 63 298
86 327 17 20 26 22 117 19 134 -4 160 2 183 41 29 47 25 79 -14 119 -46 48
-55 106 -35 223 3 14 -2 21 -17 23 -31 4 -36 -26 -23 -163 13 -137 4 -197 -34
-216 -18 -9 -20 -9 -9 2 16 17 15 60 -1 92 l-13 26 -13 -34 c-16 -46 -55 -75
-100 -75 l-36 1 32 14 c17 7 36 23 43 34 13 26 10 26 -34 0 -49 -29 -122 -24
-147 11 -10 14 -22 41 -25 60 l-7 35 28 -27 c51 -51 120 -26 143 51 7 22 21
90 32 151 37 201 84 249 190 195z m501 -374 c-6 -11 -11 -39 -11 -62 0 -35
-32 -167 -46 -191 -3 -4 -11 -5 -18 -2 -11 4 -9 23 11 97 32 115 65 206 70
190 3 -7 0 -21 -6 -32z m355 24 c-11 -8 -27 -15 -35 -14 -9 0 -2 7 14 14 39
18 45 18 21 0z m-225 -205 l29 0 0 -102 c0 -57 -4 -109 -8 -115 -6 -10 -21 -6
-61 14 -30 16 -56 33 -58 40 -3 7 4 41 16 75 12 34 21 70 21 81 0 13 5 17 16
13 9 -3 29 -6 45 -6z m8 -1051 c35 -12 51 -35 51 -73 0 -24 -3 -26 -44 -26
-30 0 -46 5 -50 15 -8 21 -84 21 -93 -1 -9 -25 17 -41 91 -52 93 -15 110 -32
108 -109 -1 -52 -5 -61 -33 -87 -31 -28 -34 -28 -126 -24 -107 5 -134 20 -136
79 -2 33 -1 34 40 37 34 3 44 -1 53 -18 9 -18 19 -21 58 -18 37 2 48 7 50 22
5 26 -24 46 -67 46 -54 0 -109 18 -121 40 -5 10 -10 43 -10 72 1 83 30 107
131 108 36 0 80 -5 98 -11z m346 -3 c24 -10 36 -23 40 -43 4 -15 8 -34 11 -40
5 -20 -92 -17 -100 2 -7 20 -82 21 -89 1 -10 -26 18 -43 87 -54 37 -6 77 -19
87 -28 45 -40 32 -152 -21 -179 -41 -21 -165 -20 -210 3 -31 15 -35 22 -38 60
l-3 42 44 0 c37 0 46 -4 50 -21 5 -17 12 -20 54 -17 41 3 48 6 51 25 4 28 -17
39 -92 46 -80 8 -106 32 -106 102 0 55 18 91 54 105 34 14 144 11 181 -4z
m-1867 -33 l-3 -38 -73 -3 -73 -3 3 -32 3 -32 68 -3 68 -3 -3 -37 -3 -37 -44
3 c-24 2 -55 1 -68 -3 -21 -5 -23 -11 -23 -70 l0 -64 -47 2 -48 2 -3 178 -2
177 125 0 126 0 -3 -37z m160 -140 l-3 -178 -45 0 -45 0 -3 178 -2 177 50 0
50 0 -2 -177z m332 137 l0 -40 -45 0 -45 0 0 -139 0 -139 -47 2 -48 1 -3 138
-3 137 -44 0 -45 0 0 40 0 40 140 0 140 0 0 -40z m251 -87 l54 -128 3 128 3
127 45 0 44 0 -2 -177 -3 -178 -70 0 -69 0 -51 122 c-29 68 -55 126 -58 130
-4 3 -7 -53 -7 -125 l0 -131 -42 2 -43 2 -3 178 -2 177 73 0 74 0 54 -127z
m489 87 l0 -40 -85 0 -85 0 0 -30 0 -30 86 0 85 0 -3 -32 -3 -33 -82 -3 -83
-3 0 -29 0 -30 84 0 c90 0 93 -2 92 -55 l-1 -30 -135 0 -135 0 -3 178 -2 177
135 0 135 0 0 -40z"/>
<path d="M2996 3820 c-25 -50 -50 -114 -56 -143 -12 -51 -11 -53 22 -102 19
-28 49 -89 68 -135 22 -51 36 -76 38 -64 2 10 18 37 35 58 17 22 33 56 37 75
14 86 -23 206 -90 291 -26 33 -27 37 -14 63 14 26 16 26 42 13 15 -8 36 -23
46 -35 11 -12 24 -21 29 -21 17 0 -31 45 -73 69 l-40 22 -44 -91z"/>
<path d="M3378 3629 c-21 -22 -48 -23 -103 -4 l-40 14 30 -25 c58 -46 135 -40
135 11 0 29 0 29 -22 4z"/>
<path d="M1350 2965 c0 -3 52 -69 115 -148 63 -78 115 -145 115 -148 0 -4 -54
-71 -120 -150 l-120 -144 45 -3 c26 -2 56 3 74 12 52 27 211 58 261 51 50 -8
90 -26 109 -49 8 -9 22 -16 32 -16 17 0 19 9 19 85 l0 85 -60 0 -60 0 0 215 0
215 -205 0 c-113 0 -205 -2 -205 -5z"/>
<path d="M4500 2755 l0 -215 -60 0 -60 0 0 -85 c0 -76 2 -85 19 -85 10 0 24 7
32 16 19 24 59 41 111 49 50 8 206 -23 260 -51 17 -9 48 -14 73 -12 l44 3
-119 144 c-66 79 -120 147 -120 150 0 4 52 71 115 148 63 78 115 144 115 147
0 4 -92 6 -205 6 l-205 0 0 -215z"/>
<path d="M1958 2543 c7 -3 16 -2 19 1 4 3 -2 6 -13 5 -11 0 -14 -3 -6 -6z"/>
<path d="M2828 2483 c7 -3 16 -2 19 1 4 3 -2 6 -13 5 -11 0 -14 -3 -6 -6z"/>
<path d="M2905 2480 c-13 -6 -15 -9 -5 -9 8 0 22 4 30 9 18 12 2 12 -25 0z"/>
<path d="M3470 2470 c0 -5 5 -10 11 -10 5 0 7 5 4 10 -3 6 -8 10 -11 10 -2 0
-4 -4 -4 -10z"/>
<path d="M3408 2463 c7 -3 16 -2 19 1 4 3 -2 6 -13 5 -11 0 -14 -3 -6 -6z"/>
<path d="M3450 2440 c8 -5 20 -10 25 -10 6 0 3 5 -5 10 -8 5 -19 10 -25 10 -5
0 -3 -5 5 -10z"/>
<path d="M2726 2411 c-3 -5 0 -14 8 -20 10 -9 17 -7 27 6 13 16 12 17 -3 4
-16 -12 -22 -9 -19 12 1 10 -7 9 -13 -2z"/>
<path d="M2956 2405 c-110 -28 -186 -85 -186 -140 0 -8 18 -72 41 -143 l41
-127 -35 -58 c-86 -142 -72 -309 37 -434 46 -53 154 -108 230 -117 204 -26
397 128 414 329 6 80 -11 149 -55 222 l-35 58 36 123 c58 196 48 232 -74 273
-85 29 -323 37 -414 14z m169 -25 c-153 -10 -264 -51 -285 -104 -6 -18 2 -57
35 -162 l44 -138 -25 -33 c-111 -146 -89 -343 53 -462 l38 -32 -47 31 c-151
98 -189 297 -86 450 l39 59 -41 124 c-22 68 -40 136 -40 150 0 72 142 126 325
125 l90 -1 -100 -7z m199 -98 c55 -25 55 -22 15 -151 l-20 -69 -47 21 c-67 31
-217 31 -284 0 l-47 -22 -26 84 c-14 46 -23 90 -19 98 6 16 63 44 115 58 19 4
86 7 149 5 93 -2 125 -7 164 -24z m104 -43 c1 -19 -10 -74 -26 -124 -24 -78
-31 -90 -52 -93 -19 -3 -22 -1 -13 10 6 7 20 42 31 78 39 121 41 136 26 165
-14 27 -14 27 8 13 15 -10 24 -27 26 -49z m-335 -179 c-40 -10 -81 -24 -92
-29 -11 -6 -28 -11 -38 -11 -30 1 56 41 106 50 85 14 97 9 24 -10z"/>
<path d="M3100 2220 c-16 -5 -2 -6 35 -3 33 3 62 7 64 9 8 7 -74 2 -99 -6z"/>
<path d="M2992 2191 c-9 -5 -3 -8 17 -7 17 1 31 4 31 9 0 10 -32 9 -48 -2z"/>
<path d="M3495 2411 c-3 -5 -2 -12 3 -15 5 -3 9 1 9 9 0 17 -3 19 -12 6z"/>
<path d="M1575 2359 c-98 -23 -135 -57 -161 -146 -23 -77 -22 -274 1 -408 50
-292 191 -586 293 -612 14 -3 61 2 106 11 128 27 122 21 79 70 -102 116 -209
431 -244 719 -15 127 -8 301 14 344 27 51 31 50 -88 22z m70 -16 c-11 -30 -22
-164 -18 -238 3 -82 -2 -77 -20 20 l-13 70 -11 -75 -10 -75 -2 74 c0 41 -3 72
-6 69 -3 -3 -9 -41 -14 -84 l-8 -79 -2 80 c-3 93 -19 77 -20 -19 -1 -67 -8
-69 -20 -5 l-9 44 -1 -59 c-1 -74 -10 -68 -20 15 l-7 64 -11 -65 -10 -65 -2
59 c-1 72 -8 69 -20 -10 l-9 -59 -1 62 c-2 114 35 227 83 252 18 9 123 38 150
40 4 1 5 -7 1 -16z"/>
<path d="M3537 2356 c3 -15 10 -29 15 -32 6 -4 7 2 3 17 -10 35 -23 45 -18 15z"/>
<path d="M4580 2371 c0 -6 4 -12 9 -15 21 -13 34 -141 28 -270 -15 -294 -132
-678 -249 -811 -44 -50 -50 -44 78 -71 45 -9 92 -14 106 -11 40 10 105 86 152
176 171 334 215 828 85 948 -15 14 -58 30 -112 43 -102 23 -97 23 -97 11z
m115 -31 c107 -21 144 -82 150 -238 4 -89 3 -92 -5 -38 -13 80 -20 82 -21 5
l-1 -64 -9 60 c-12 79 -17 89 -19 35 -1 -25 -6 -56 -10 -70 -6 -19 -8 -11 -10
35 l-2 60 -13 -50 -13 -50 -2 60 c-3 98 -18 113 -21 20 l-2 -80 -8 79 c-5 43
-11 81 -14 84 -3 3 -6 -28 -6 -69 l-2 -74 -10 75 -11 75 -13 -70 c-18 -98 -24
-102 -19 -17 3 73 -6 184 -20 231 -6 19 -4 23 7 19 8 -3 41 -11 74 -18z"/>
<path d="M1694 2345 c-44 -67 -39 -280 11 -530 66 -326 212 -612 283 -553 45
38 60 162 42 334 -8 65 -14 133 -14 149 l-1 30 130 16 c72 9 228 25 347 35
l217 18 11 29 c5 17 8 33 5 35 -15 15 -552 -35 -807 -76 l-117 -18 -6 24 c-3
13 -5 26 -3 27 17 17 549 74 851 91 107 6 140 15 123 31 -13 13 -508 -29 -747
-63 l-47 -6 -16 58 c-41 149 -108 294 -162 354 -43 47 -76 52 -100 15z m139
-315 c14 -32 29 -74 32 -93 7 -33 6 -35 -29 -41 -20 -4 -40 -5 -45 -2 -5 3
-12 42 -16 85 -12 134 13 155 58 51z m83 -307 c4 -21 8 -71 8 -112 1 -84 -13
-101 -40 -50 -27 53 -65 172 -57 180 5 4 22 9 38 12 17 2 33 5 37 6 4 0 10
-16 14 -36z"/>
<path d="M4465 2328 c-21 -22 -55 -78 -75 -122 -37 -78 -100 -258 -100 -283 0
-16 2 -16 -170 7 -128 17 -333 37 -557 54 -68 6 -91 -2 -62 -20 6 -3 95 -12
197 -20 272 -20 739 -75 763 -90 4 -2 5 -14 2 -25 -7 -25 -9 -25 -243 10 -212
31 -677 77 -687 68 -2 -2 2 -18 8 -35 13 -38 9 -37 209 -52 85 -7 232 -22 325
-34 169 -21 170 -21 169 -46 0 -14 -7 -79 -14 -144 -25 -232 13 -371 90 -331
137 71 314 719 270 990 -20 125 -59 147 -125 73z m20 -342 c-8 -105 -12 -110
-64 -101 -38 6 -41 9 -35 33 12 49 65 171 77 175 22 8 29 -25 22 -107z m-73
-250 l26 -6 -14 -47 c-24 -78 -63 -155 -76 -150 -9 3 -13 28 -12 84 1 103 9
136 32 129 9 -2 29 -7 44 -10z"/>
<path d="M2651 2274 c0 -11 3 -14 6 -6 3 7 2 16 -1 19 -3 4 -6 -2 -5 -13z"/>
<path d="M3566 2257 c3 -10 9 -15 12 -12 3 3 0 11 -7 18 -10 9 -11 8 -5 -6z"/>
<path d="M3551 2224 c0 -11 3 -14 6 -6 3 7 2 16 -1 19 -3 4 -6 -2 -5 -13z"/>
<path d="M1970 2205 c0 -8 4 -15 10 -15 5 0 7 7 4 15 -4 8 -8 15 -10 15 -2 0
-4 -7 -4 -15z"/>
<path d="M1336 2200 c-77 -23 -101 -88 -101 -270 1 -190 43 -367 125 -530 68
-134 114 -169 195 -149 l45 11 -19 27 c-69 97 -151 328 -182 512 -17 97 -20
154 -17 267 2 92 0 142 -7 141 -5 0 -23 -5 -39 -9z m29 -102 c-4 -51 -11 -111
-15 -133 l-8 -40 -2 35 c-2 33 -3 33 -10 10 -7 -21 -8 -22 -9 -5 -2 31 -20 -2
-22 -40 -2 -27 -3 -25 -9 10 -7 37 -7 38 -10 10 l-2 -30 -8 30 c-4 17 -8 22
-9 13 0 -9 -5 -19 -10 -22 -9 -6 -7 41 4 129 9 70 53 122 104 124 11 1 12 -17
6 -91z"/>
<path d="M4878 2068 c3 -113 0 -169 -17 -267 -31 -184 -113 -415 -182 -512
l-19 -27 45 -11 c82 -21 128 15 197 154 142 283 171 705 55 779 -12 8 -36 17
-52 20 l-30 7 3 -143z m89 86 c26 -29 39 -75 46 -164 5 -58 4 -63 -9 -46 -14
19 -14 19 -15 -5 -1 -22 -2 -21 -9 6 -7 29 -8 29 -10 -10 l-2 -40 -8 38 c-8
43 -20 60 -21 31 -1 -15 -3 -13 -9 6 -7 22 -8 20 -10 -15 l-2 -40 -8 45 c-4
25 -11 87 -15 139 l-7 94 28 -7 c16 -4 39 -18 51 -32z"/>
<path d="M1976 2143 c-6 -14 -5 -15 5 -6 7 7 10 15 7 18 -3 3 -9 -2 -12 -12z"/>
<path d="M2688 2083 c6 -2 18 -2 25 0 6 3 1 5 -13 5 -14 0 -19 -2 -12 -5z"/>
<path d="M2543 2073 c9 -2 15 -9 12 -14 -3 -5 1 -6 10 -2 13 5 14 7 3 14 -7 5
-20 8 -28 8 -11 -1 -10 -3 3 -6z"/>
<path d="M3608 2073 c7 -3 16 -2 19 1 4 3 -2 6 -13 5 -11 0 -14 -3 -6 -6z"/>
<path d="M3768 2073 c7 -3 16 -2 19 1 4 3 -2 6 -13 5 -11 0 -14 -3 -6 -6z"/>
<path d="M2648 2063 c7 -3 16 -2 19 1 4 3 -2 6 -13 5 -11 0 -14 -3 -6 -6z"/>
<path d="M3663 2063 c9 -2 23 -2 30 0 6 3 -1 5 -18 5 -16 0 -22 -2 -12 -5z"/>
<path d="M3825 2060 c-16 -7 -17 -9 -3 -9 9 -1 20 4 23 9 7 11 7 11 -20 0z"/>
<path d="M2448 2053 c6 -2 18 -2 25 0 6 3 1 5 -13 5 -14 0 -19 -2 -12 -5z"/>
<path d="M3518 2053 c6 -2 18 -2 25 0 6 3 1 5 -13 5 -14 0 -19 -2 -12 -5z"/>
<path d="M2370 2046 c0 -2 9 -6 20 -9 11 -3 18 -1 14 4 -5 9 -34 13 -34 5z"/>
<path d="M3768 2043 c7 -3 16 -2 19 1 4 3 -2 6 -13 5 -11 0 -14 -3 -6 -6z"/>
<path d="M2032 2020 c7 -10 14 -18 15 -16 6 6 -9 36 -18 36 -5 0 -4 -9 3 -20z"/>
<path d="M1185 2011 c-84 -35 -97 -228 -29 -439 48 -149 112 -231 172 -217
l30 6 -28 62 c-68 152 -110 337 -112 500 0 53 -4 97 -7 96 -3 0 -15 -4 -26 -8z
m15 -78 c0 -81 -9 -121 -21 -101 -6 9 -9 4 -10 -17 l-1 -30 -8 30 -8 30 -2
-30 -2 -30 -10 35 c-15 53 -5 126 22 155 13 14 27 25 32 25 4 0 8 -30 8 -67z"/>
<path d="M5041 1922 c-1 -161 -42 -346 -111 -499 l-28 -62 30 -6 c60 -14 125
69 172 218 67 213 56 408 -26 436 -17 6 -32 11 -34 11 -1 0 -3 -44 -3 -98z
m54 61 c34 -33 45 -111 25 -173 -8 -25 -8 -25 -10 5 l-2 30 -8 -30 -8 -30 -2
30 c-1 26 -3 27 -10 10 -8 -19 -9 -19 -9 3 -1 12 -4 22 -8 22 -5 0 -7 34 -5
75 2 41 7 75 12 75 5 0 16 -7 25 -17z"/>
<path d="M1061 1761 c-28 -18 -6 -173 30 -218 11 -12 59 -19 59 -8 0 3 -9 40
-19 83 -11 42 -22 94 -26 115 -6 37 -18 45 -44 28z m28 -63 c0 -37 -3 -47 -8
-33 l-8 20 -5 -20 c-3 -11 -6 4 -7 33 -1 40 2 52 14 52 12 0 15 -12 14 -52z"/>
<path d="M5154 1733 c-6 -41 -30 -144 -40 -180 -5 -20 -3 -23 20 -23 23 0 31
8 51 53 30 64 35 171 9 181 -28 11 -33 7 -40 -31z m45 -35 c0 -39 -3 -48 -9
-33 l-9 20 -1 -20 c-2 -14 -4 -10 -9 10 -9 40 -2 75 15 75 10 0 14 -14 13 -52z"/>
<path d="M3578 1733 c7 -3 16 -2 19 1 4 3 -2 6 -13 5 -11 0 -14 -3 -6 -6z"/>
<path d="M2488 1723 c7 -3 16 -2 19 1 4 3 -2 6 -13 5 -11 0 -14 -3 -6 -6z"/>
<path d="M3980 1726 c0 -2 7 -7 16 -10 8 -3 12 -2 9 4 -6 10 -25 14 -25 6z"/>
<path d="M3560 1709 c0 -5 5 -7 10 -4 6 3 10 8 10 11 0 2 -4 4 -10 4 -5 0 -10
-5 -10 -11z"/>
<path d="M2216 1651 c-14 -26 -14 -30 2 -42 9 -7 14 -9 10 -5 -4 5 -2 16 5 24
9 13 9 14 0 8 -16 -9 -16 -1 -3 25 6 10 8 19 6 19 -3 0 -12 -13 -20 -29z"/>
<path d="M4045 1630 c-3 -5 -1 -10 4 -10 6 0 11 5 11 10 0 6 -2 10 -4 10 -3 0
-8 -4 -11 -10z"/>
<path d="M2244 1600 c0 -13 4 -16 10 -10 7 7 7 13 0 20 -6 6 -10 3 -10 -10z"/>
<path d="M2276 1607 c3 -10 9 -15 12 -12 3 3 0 11 -7 18 -10 9 -11 8 -5 -6z"/>
<path d="M3586 1584 c-4 -14 -5 -28 -3 -31 3 -2 8 8 11 23 4 14 5 28 3 31 -3
2 -8 -8 -11 -23z"/>
<path d="M4003 1587 c-4 -6 -1 -7 7 -2 10 6 12 4 7 -8 -9 -23 0 -22 12 1 8 14
6 19 -5 19 -8 0 -18 -5 -21 -10z"/>
<path d="M2269 1571 c7 -5 11 -14 7 -19 -7 -11 32 -38 48 -34 5 2 6 -3 4 -10
-4 -8 3 -14 18 -14 21 -2 22 0 8 13 -8 8 -22 16 -32 17 -9 2 -16 7 -15 12 2
12 -27 44 -41 44 -6 0 -5 -4 3 -9z"/>
<path d="M3930 1530 c-13 -9 -13 -11 0 -20 8 -5 20 -10 25 -10 6 0 4 4 -4 9
-7 5 -10 14 -7 20 9 13 6 14 -14 1z"/>
<path d="M2360 1526 c0 -2 7 -7 16 -10 8 -3 12 -2 9 4 -6 10 -25 14 -25 6z"/>
<path d="M2743 1505 c-8 -9 -9 -16 -3 -20 6 -4 8 -10 5 -15 -3 -5 6 -7 19 -4
28 5 41 -10 41 -46 0 -19 5 -25 23 -26 21 -1 22 0 6 17 -10 11 -13 19 -9 19 5
0 -2 11 -15 25 -13 14 -31 24 -39 23 -11 -2 -15 4 -14 20 3 26 2 26 -14 7z
m82 -95 c3 -5 1 -10 -4 -10 -6 0 -11 5 -11 10 0 6 2 10 4 10 3 0 8 -4 11 -10z"/>
<path d="M3470 1454 c0 -8 5 -12 10 -9 6 4 8 11 5 16 -9 14 -15 11 -15 -7z"/>
<path d="M2413 1440 c1 -21 10 -18 13 5 1 8 -2 15 -6 15 -5 0 -8 -9 -7 -20z"/>
<path d="M2449 1458 c-5 -18 -6 -38 -1 -34 7 8 12 36 6 36 -2 0 -4 -1 -5 -2z"/>
<path d="M3845 1439 c-4 -6 -5 -12 -2 -15 2 -3 7 2 10 11 7 17 1 20 -8 4z"/>
<path d="M3425 1423 c-14 -32 -15 -47 -2 -34 10 10 21 51 13 51 -2 0 -7 -8
-11 -17z"/>
<path d="M2449 1403 c-12 -16 -12 -17 2 -6 9 7 20 9 24 5 5 -4 5 -1 1 6 -9 16
-11 15 -27 -5z"/>
<path d="M3740 1356 c4 -4 16 -4 26 2 16 9 14 10 -8 9 -15 -1 -23 -6 -18 -11z"/>
<path d="M3683 1343 c1 -18 4 -20 22 -11 28 15 34 23 11 14 -12 -4 -23 -2 -27
6 -5 8 -8 5 -6 -9z"/>
<path d="M2948 1343 c7 -3 16 -2 19 1 4 3 -2 6 -13 5 -11 0 -14 -3 -6 -6z"/>
<path d="M2564 1326 c11 -9 24 -16 30 -16 12 0 7 5 -24 19 -24 11 -24 11 -6
-3z"/>
<path d="M3266 1328 c3 -5 10 -6 15 -3 13 9 11 12 -6 12 -8 0 -12 -4 -9 -9z"/>
<path d="M3345 1330 c-3 -5 -1 -10 4 -10 6 0 11 5 11 10 0 6 -2 10 -4 10 -3 0
-8 -4 -11 -10z"/>
<path d="M3207 1309 c7 -7 15 -10 18 -7 3 3 -2 9 -12 12 -14 6 -15 5 -6 -5z"/>
<path d="M2760 1250 c8 -5 22 -9 30 -9 10 0 8 3 -5 9 -27 12 -43 12 -25 0z"/>
<path d="M3511 1250 c-9 -5 -4 -7 13 -7 29 0 32 2 13 10 -8 3 -20 2 -26 -3z"/>
<path d="M3098 1183 c7 -3 16 -2 19 1 4 3 -2 6 -13 5 -11 0 -14 -3 -6 -6z"/>
<path d="M3243 1183 c9 -2 23 -2 30 0 6 3 -1 5 -18 5 -16 0 -22 -2 -12 -5z"/>
</g>
</svg>
